<?xml version="1.0" standalone="no"?>
<!DOCTYPE svg PUBLIC "-//W3C//DTD SVG 20010904//EN"
 "http://www.w3.org/TR/2001/REC-SVG-20010904/DTD/svg10.dtd">
<svg version="1.0" xmlns="http://www.w3.org/2000/svg"
 width="403.000000pt" height="84.000000pt" viewBox="0 0 403.000000 84.000000"
 preserveAspectRatio="xMidYMid meet">

<g transform="translate(0.000000,84.000000) scale(0.100000,-0.100000)"
fill="#000000" stroke="none">
<path d="M320 695 c0 -9 5 -15 11 -13 6 2 11 8 11 13 0 5 -5 11 -11 13 -6 2
-11 -4 -11 -13z"/>
<path d="M447 704 c-8 -8 1 -24 14 -24 5 0 9 7 9 15 0 15 -12 20 -23 9z"/>
<path d="M2920 465 l0 -195 40 0 40 0 0 195 0 195 -40 0 -40 0 0 -195z"/>
<path d="M184 635 c-4 -9 -2 -21 4 -27 15 -15 44 -1 40 19 -4 23 -36 29 -44 8z"/>
<path d="M307 637 c-8 -21 8 -39 29 -35 27 5 25 42 -2 46 -12 2 -24 -3 -27
-11z"/>
<path d="M434 635 c-8 -19 3 -35 26 -35 19 0 30 17 23 38 -6 17 -42 15 -49 -3z"/>
<path d="M563 634 c-3 -8 -1 -20 5 -26 16 -16 42 -2 42 22 0 24 -38 28 -47 4z"/>
<path d="M1500 460 l0 -190 94 3 c85 2 98 5 121 27 58 55 58 148 -2 200 -33
29 -41 32 -85 28 l-48 -5 0 63 0 64 -40 0 -40 0 0 -190z m164 -12 c46 -66 -19
-153 -76 -101 -23 20 -24 85 -2 107 22 23 60 20 78 -6z"/>
<path d="M2080 461 l0 -189 84 0 c98 0 139 18 162 73 19 47 18 84 -6 122 -29
49 -63 66 -115 61 l-45 -6 0 64 0 64 -40 0 -40 0 0 -189z m164 -13 c46 -66
-19 -153 -76 -101 -23 20 -24 85 -2 107 22 23 60 20 78 -6z"/>
<path d="M1202 623 c-12 -23 -5 -40 19 -53 27 -15 64 22 49 50 -13 25 -56 26
-68 3z"/>
<path d="M294 535 c-24 -24 -25 -28 -11 -48 20 -31 61 -34 81 -6 17 25 8 52
-24 69 -17 9 -25 6 -46 -15z"/>
<path d="M441 544 c-23 -17 -28 -53 -9 -72 19 -19 55 -14 72 9 30 43 -20 93
-63 63z"/>
<path d="M191 520 c-19 -11 -9 -45 14 -45 13 0 21 8 23 21 3 23 -17 37 -37 24z"/>
<path d="M571 520 c-19 -11 -9 -45 14 -45 13 0 21 8 23 21 3 23 -17 37 -37 24z"/>
<path d="M966 509 l-27 -22 27 -18 c20 -13 32 -15 40 -8 16 13 56 8 62 -8 2
-9 -7 -13 -27 -13 -100 0 -157 -85 -97 -145 21 -21 32 -23 115 -23 l91 0 0
105 c0 97 -2 106 -25 128 -33 34 -119 36 -159 4z m102 -151 c-2 -18 -11 -24
-35 -26 -27 -3 -33 0 -33 16 0 26 8 32 42 32 25 0 29 -4 26 -22z"/>
<path d="M1200 399 l0 -130 38 3 37 3 3 128 3 127 -41 0 -40 0 0 -131z"/>
<path d="M1320 399 l0 -130 38 3 37 3 5 95 5 95 38 3 c23 2 37 8 37 17 0 7 3
20 6 28 5 13 -8 15 -80 15 l-86 1 0 -130z"/>
<path d="M1790 400 l0 -130 40 0 40 0 0 88 c0 96 7 112 51 112 35 0 39 -13 39
-116 l0 -84 40 0 40 0 0 83 c0 96 -14 153 -40 167 -24 13 -86 13 -111 0 -13
-7 -19 -7 -19 0 0 5 -18 10 -40 10 l-40 0 0 -130z"/>
<path d="M2725 520 c-11 -4 -31 -20 -45 -35 -21 -22 -25 -37 -25 -86 0 -53 3
-62 32 -90 42 -43 120 -51 172 -19 l34 22 -25 25 c-25 24 -27 25 -49 9 -13 -9
-31 -16 -40 -16 -26 0 -49 34 -49 72 0 59 52 88 92 51 18 -16 20 -15 45 9 l26
26 -34 21 c-35 22 -97 27 -134 11z"/>
<path d="M3090 508 c-50 -34 -70 -93 -50 -150 29 -82 128 -114 201 -65 46 31
61 62 56 120 -6 70 -46 109 -119 115 -44 3 -59 0 -88 -20z m112 -55 c27 -24
24 -87 -4 -107 -30 -21 -44 -20 -68 4 -38 38 -13 120 37 120 9 0 25 -7 35 -17z"/>
<path d="M3330 399 l0 -130 38 3 37 3 5 95 5 95 35 0 35 0 5 -95 5 -95 38 -3
37 -3 0 104 c0 90 -3 108 -21 131 -16 20 -29 26 -60 26 -22 0 -49 -5 -60 -10
-13 -7 -19 -7 -19 0 0 5 -18 10 -40 10 l-40 0 0 -131z"/>
<path d="M3668 514 c-37 -19 -58 -63 -58 -116 1 -52 17 -83 56 -109 41 -27
122 -26 158 2 l27 21 -22 24 c-21 22 -24 23 -45 9 -13 -8 -32 -15 -42 -15 -18
0 -52 29 -52 43 0 4 41 7 91 7 l92 0 -6 42 c-9 64 -60 108 -124 108 -27 -1
-60 -7 -75 -16z m108 -61 c17 -17 16 -18 -30 -21 -56 -4 -69 4 -42 24 26 19
51 18 72 -3z"/>
<path d="M122 499 c2 -6 8 -10 13 -10 5 0 11 4 13 10 2 6 -4 11 -13 11 -9 0
-15 -5 -13 -11z"/>
<path d="M642 499 c2 -6 8 -10 13 -10 5 0 11 4 13 10 2 6 -4 11 -13 11 -9 0
-15 -5 -13 -11z"/>
<path d="M286 389 c-17 -25 -8 -52 24 -69 17 -9 25 -6 46 15 24 24 25 28 11
48 -20 31 -61 34 -81 6z"/>
<path d="M432 398 c-19 -19 -14 -55 9 -72 43 -30 93 20 63 63 -17 23 -53 28
-72 9z"/>
<path d="M187 394 c-12 -12 -8 -42 6 -47 21 -8 39 8 35 29 -3 19 -29 30 -41
18z"/>
<path d="M567 394 c-12 -12 -8 -42 6 -47 21 -8 39 8 35 29 -3 19 -29 30 -41
18z"/>
<path d="M126 383 c-11 -11 -6 -23 9 -23 8 0 15 4 15 9 0 13 -16 22 -24 14z"/>
<path d="M646 383 c-11 -11 -6 -23 9 -23 8 0 15 4 15 9 0 13 -16 22 -24 14z"/>
<path d="M184 255 c-4 -9 -2 -21 4 -27 15 -15 44 -1 40 19 -4 23 -36 29 -44 8z"/>
<path d="M307 257 c-8 -21 8 -39 29 -35 27 5 25 42 -2 46 -12 2 -24 -3 -27
-11z"/>
<path d="M434 255 c-8 -19 3 -35 26 -35 19 0 30 17 23 38 -6 17 -42 15 -49 -3z"/>
<path d="M564 256 c-8 -21 3 -36 27 -36 15 0 20 6 17 22 -4 27 -35 37 -44 14z"/>
<path d="M2360 235 l0 -35 135 0 135 0 0 35 0 35 -135 0 -135 0 0 -35z"/>
<path d="M320 175 c0 -9 5 -15 11 -13 6 2 11 8 11 13 0 5 -5 11 -11 13 -6 2
-11 -4 -11 -13z"/>
<path d="M447 184 c-8 -8 1 -24 14 -24 5 0 9 7 9 15 0 15 -12 20 -23 9z"/>
</g>
</svg>
