<?xml version="1.0" standalone="no"?>
<!DOCTYPE svg PUBLIC "-//W3C//DTD SVG 20010904//EN"
 "http://www.w3.org/TR/2001/REC-SVG-20010904/DTD/svg10.dtd">
<svg version="1.0" xmlns="http://www.w3.org/2000/svg"
 width="510.000000pt" height="118.000000pt" viewBox="0 0 510.000000 118.000000"
 preserveAspectRatio="xMidYMid meet">

<g transform="translate(0.000000,118.000000) scale(0.100000,-0.100000)"
fill="#000000" stroke="none">
<path d="M429 957 c-104 -30 -190 -104 -238 -206 -22 -48 -26 -70 -26 -146 0
-82 3 -97 32 -156 39 -79 102 -140 181 -177 77 -36 212 -39 285 -5 l47 22 48
-22 c37 -17 66 -21 137 -22 82 0 97 3 156 32 79 39 140 102 177 181 23 49 27
70 27 147 0 77 -4 98 -27 147 -37 79 -98 142 -177 181 -59 29 -74 32 -156 32
-71 -1 -100 -5 -137 -22 l-48 -22 -46 20 c-57 26 -173 34 -235 16z m216 -41
l36 -15 -39 -35 c-138 -125 -146 -356 -17 -503 25 -28 45 -54 45 -57 0 -3 -26
-13 -57 -22 -153 -44 -322 35 -391 185 -38 80 -38 192 0 272 43 94 127 164
225 189 50 12 152 5 198 -14z m390 -10 c68 -31 130 -93 164 -165 21 -46 26
-70 26 -136 0 -71 -4 -89 -33 -147 -18 -37 -49 -81 -69 -99 -86 -75 -212 -105
-316 -75 -31 9 -57 19 -57 23 0 3 18 26 41 50 22 25 53 70 67 101 23 48 27 71
27 147 0 76 -4 99 -27 147 -14 31 -45 77 -69 102 -23 26 -39 49 -36 53 4 3 28
12 54 19 66 19 162 10 228 -20z m-298 -43 c28 -18 83 -89 83 -107 0 -6 -27 16
-60 49 -72 71 -82 97 -23 58z m26 -101 c73 -73 89 -95 93 -128 l6 -39 -113
112 c-97 96 -111 114 -100 127 8 9 16 16 20 16 3 0 46 -40 94 -88z m87 -229
c0 -13 -3 -23 -8 -23 -4 0 -61 53 -126 119 -101 101 -117 122 -111 141 7 21
17 12 126 -96 82 -82 119 -126 119 -141z m-31 -85 c-5 -10 -13 -18 -17 -18 -4
0 -57 51 -119 112 -106 106 -128 140 -106 162 4 4 62 -48 129 -115 103 -103
121 -125 113 -141z m-50 -73 c-13 -14 -25 -5 -112 83 -77 79 -97 105 -97 128
0 27 8 21 112 -83 101 -101 111 -114 97 -128z m-49 -37 c0 -31 -88 48 -116
104 -14 28 -6 23 50 -32 36 -35 66 -68 66 -72z"/>
<path d="M1660 610 l0 -200 40 0 40 0 0 95 c0 82 3 98 20 115 25 25 52 26 73
2 13 -15 17 -39 17 -115 l0 -97 41 0 41 0 -4 121 c-3 119 -3 121 -32 146 -24
20 -37 24 -75 21 -25 -3 -54 -8 -63 -12 -16 -7 -18 -1 -18 58 l0 66 -40 0 -40
0 0 -200z"/>
<path d="M3380 803 c-30 -11 -60 -47 -66 -80 -3 -18 -12 -33 -20 -33 -19 0
-18 -56 1 -64 12 -4 15 -26 15 -111 l0 -105 40 0 40 0 0 110 0 110 25 0 c21 0
25 5 25 30 0 26 -4 30 -26 30 -21 0 -25 4 -22 22 2 17 11 24 33 28 25 4 30 10
33 38 3 30 2 32 -30 31 -18 0 -40 -3 -48 -6z"/>
<path d="M4780 739 l0 -70 -22 15 c-54 38 -161 9 -193 -53 -22 -43 -20 -126 5
-166 36 -59 119 -81 180 -50 17 9 30 11 30 5 0 -5 18 -10 40 -10 l40 0 0 200
0 200 -40 0 -40 0 0 -71z m-10 -139 c17 -32 12 -88 -10 -110 -20 -20 -63 -26
-95 -14 -43 17 -54 104 -17 137 35 31 103 23 122 -13z"/>
<path d="M2082 683 c-104 -51 -108 -199 -7 -258 106 -63 235 6 235 125 0 113
-123 185 -228 133z m129 -72 c33 -27 33 -95 0 -122 -55 -45 -131 -10 -131 61
0 71 76 106 131 61z"/>
<path d="M2387 693 c-4 -3 -7 -69 -7 -145 l0 -138 40 0 40 0 0 93 c0 80 3 96
20 115 24 25 48 28 76 8 16 -12 20 -29 22 -115 l4 -101 34 0 34 0 1 78 c1 98
9 123 41 141 23 13 29 13 52 -2 25 -17 26 -21 26 -117 l0 -100 40 0 40 0 0 95
c0 105 -14 152 -51 179 -33 22 -110 21 -140 -3 -24 -19 -25 -19 -48 0 -26 21
-90 25 -124 8 -16 -9 -22 -9 -25 0 -4 12 -64 16 -75 4z"/>
<path d="M3000 682 c-50 -28 -73 -63 -78 -124 -3 -44 0 -59 20 -87 48 -70 144
-91 219 -49 49 28 55 44 21 62 -24 12 -30 12 -47 0 -37 -27 -135 -8 -135 27 0
5 50 9 115 9 l115 0 0 30 c0 47 -24 94 -60 120 -45 32 -123 38 -170 12z m130
-74 l21 -23 -72 -3 c-39 -2 -74 0 -78 3 -3 4 5 15 18 26 32 26 85 25 111 -3z"/>
<path d="M3562 683 c-52 -25 -77 -69 -77 -133 0 -64 20 -97 76 -129 117 -67
262 40 227 167 -25 93 -136 140 -226 95z m129 -72 c18 -14 24 -29 24 -61 0
-32 -6 -47 -24 -61 -53 -43 -131 -8 -131 60 0 70 77 106 131 62z"/>
<path d="M3860 591 c0 -60 4 -121 10 -135 18 -49 111 -73 158 -40 12 8 22 10
22 5 0 -6 18 -11 40 -11 l40 0 0 145 0 145 -40 0 -40 0 0 -97 c0 -54 -4 -103
-8 -109 -16 -24 -48 -33 -73 -21 -23 12 -24 19 -29 117 l-5 105 -37 3 -38 3 0
-110z"/>
<path d="M4210 555 l0 -145 40 0 40 0 0 100 c0 96 1 100 26 117 24 15 29 15
53 2 25 -14 26 -18 29 -117 l3 -102 39 0 40 0 0 99 c0 54 -5 112 -11 130 -18
52 -89 76 -153 51 -16 -6 -27 -6 -31 0 -4 6 -22 10 -41 10 l-34 0 0 -145z"/>
</g>
</svg>
